<svg width="51" height="66" viewBox="0 0 51 66" fill="none" xmlns="http://www.w3.org/2000/svg">
<g clip-path="url(#clip0_6_2107)">
<path d="M37 0.5H14C6.54416 0.5 0.5 6.54416 0.5 14V52C0.5 59.4558 6.54416 65.5 14 65.5H37C44.4558 65.5 50.5 59.4558 50.5 52V14C50.5 6.54416 44.4558 0.5 37 0.5Z" stroke="#151FE6"/>
<g clip-path="url(#clip1_6_2107)">
<path fill-rule="evenodd" clip-rule="evenodd" d="M14.8088 9H14.8088L14.8365 9.0984C14.8808 9.10559 14.9265 9.11262 14.9732 9.1198L14.9732 9.1198C15.4298 9.19007 15.9824 9.27511 16.2629 9.66653C16.3891 9.84262 16.417 9.99306 16.4444 10.1402C16.4856 10.3625 16.5255 10.5771 16.9008 10.8612L16.9186 10.8747L16.9186 10.8747C17.0356 10.9634 17.1577 11.0559 17.2931 11.1115L17.3082 11.1179C17.4949 11.1943 17.8491 11.2003 18.1 11.2045L18.1001 11.2045C18.145 11.2053 18.1867 11.206 18.2234 11.207C18.7544 11.222 19.2871 11.2186 19.8194 11.2151C20.121 11.2132 20.4225 11.2112 20.7235 11.2126C22.5339 11.2326 24.3444 11.2424 26.1549 11.242C27.766 11.2508 29.3772 11.2515 30.9884 11.244C31.2205 11.2426 31.454 11.2437 31.6881 11.2448H31.6881C32.2611 11.2475 32.8372 11.2503 33.4045 11.2156C33.789 11.1921 34.1183 11.1336 34.4722 10.9765C34.7592 10.849 34.9313 10.6903 35.0434 10.3906C35.0716 10.3152 35.0965 10.244 35.1202 10.1766C35.2689 9.75301 35.3654 9.47792 35.8774 9.24591C36.0288 9.17734 36.1859 9.16402 36.3428 9.15072C36.4574 9.14101 36.5719 9.1313 36.6838 9.10008L36.6877 9.09433L37.0967 9.09609H37.6178H37.7694L37.8483 9.1075C38.1849 9.1559 38.5266 9.20501 38.8234 9.38407C39.2064 9.615 39.2846 9.91385 39.3856 10.2996L39.3856 10.2997C39.3952 10.3362 39.405 10.3735 39.4152 10.4116C39.4631 10.5896 39.5531 10.7318 39.6797 10.8636C39.9361 11.1304 40.0834 11.1522 40.2461 11.1763C40.3598 11.1931 40.481 11.211 40.6523 11.3144C41.0042 11.5268 41.2374 12.0052 41.3315 12.3975C41.4686 12.9687 41.457 14.4915 41.2805 15.0592C41.182 15.3763 41.0154 15.6747 40.726 15.8485C40.5871 15.932 40.4291 15.9757 40.2716 16.0192C40.046 16.0816 39.8216 16.1436 39.6562 16.322C39.5079 16.4818 39.4509 16.6793 39.3934 16.8782C39.3495 17.0304 39.3053 17.1834 39.2199 17.321C39.0344 17.6195 38.7037 17.7702 38.3753 17.8471C37.5621 18.0378 35.7925 18.1359 35.2574 17.3459C35.1617 17.2046 35.1199 17.0548 35.0793 16.9093C35.0161 16.6831 34.9558 16.4669 34.7003 16.3081C34.3913 16.1161 33.996 16.0025 33.6369 15.9732C33.2807 15.9442 32.9169 15.9465 32.5568 15.9488C32.4622 15.9494 32.3678 15.95 32.2739 15.95L30.1522 15.9534L24.0336 15.9485L19.8624 15.9512C19.7044 15.9518 19.5312 15.949 19.3501 15.946C18.7139 15.9357 17.9791 15.9239 17.4568 16.0512C16.8433 16.2007 16.6238 16.3842 16.4439 16.9785C16.4377 16.9992 16.4315 17.0202 16.4254 17.0411C16.3908 17.159 16.3556 17.2789 16.2913 17.3832C16.1147 17.6694 15.716 17.8075 15.4072 17.8769C14.5703 18.065 12.7324 18.1144 12.2612 17.2321C12.1955 17.109 12.1623 16.9706 12.1292 16.8325C12.0793 16.6243 12.0295 16.4169 11.8687 16.2642C11.7079 16.1116 11.5038 16.0548 11.2985 15.9976C11.1356 15.9523 10.9721 15.9068 10.8291 15.8131C10.4836 15.5866 10.3444 15.2143 10.264 14.8234C10.0743 13.9011 10.0802 12.8193 10.4344 11.9366C10.5193 11.7249 10.623 11.497 10.822 11.3722C10.9549 11.2888 11.1127 11.2455 11.2703 11.2023C11.491 11.1419 11.7113 11.0815 11.8617 10.9113C12.0219 10.73 12.0834 10.4995 12.1451 10.268C12.197 10.0735 12.249 9.87836 12.3599 9.71105C12.6338 9.2979 13.1428 9.21589 13.6093 9.14072C13.7164 9.12346 13.8213 9.10656 13.9206 9.08609C14.0855 9.08222 14.2501 9.08694 14.4146 9.09166C14.5552 9.09569 14.6958 9.09972 14.8365 9.0984L14.8088 9Z" fill="#222225"/>
<path d="M18.7009 18.9935C19.071 18.985 19.9924 18.9727 20.3113 19.0443C20.4821 19.0827 20.6438 19.1597 20.7879 19.2595C21.2288 19.5652 21.4168 20.057 21.5181 20.5662C21.6306 21.1317 21.5733 21.767 21.5708 22.3431L21.5673 26.2127C21.5662 26.795 21.5117 27.77 21.6103 28.3104C21.7117 28.8661 22.1703 29.4346 22.6948 29.6377C23.3086 29.8752 24.3644 29.7873 25.0358 29.7897L30.0253 29.791L31.5501 29.7867C31.9144 29.7868 32.2894 29.7762 32.6508 29.828C32.8948 29.8629 33.1306 29.9696 33.3314 30.1122C33.7075 30.3794 33.8969 30.7786 33.9731 31.2279C34.1022 31.9886 34.0923 33.0931 33.6339 33.7383C33.3682 34.1123 33.0528 34.2852 32.608 34.3588C31.9672 34.4495 31.2824 34.4064 30.6353 34.4048L27.4777 34.4016L23.9709 34.4143C23.3688 34.4142 22.7314 34.4543 22.1342 34.3751C21.526 34.2944 20.8482 34.0514 20.331 33.7184C19.7277 33.3299 19.4393 32.9485 18.9818 32.4219C18.098 31.4046 17.6728 31.0775 17.3671 29.6681C17.2255 29.0148 17.2776 28.2689 17.2793 27.6005L17.2864 25.0103L17.282 22.3109C17.2823 21.7053 17.2658 21.092 17.3322 20.4894C17.3599 20.239 17.4209 20.0346 17.5583 19.8226C17.8155 19.4258 18.2348 19.0911 18.7009 18.9935Z" fill="#222225"/>
<path d="M15.5842 36.0051C15.8187 35.9966 16.0728 35.971 16.3037 36.0177C16.7468 36.1072 17.1213 36.4194 17.2705 36.8501C17.4795 37.4535 17.3869 38.8257 17.3884 39.5303L17.3792 45.8814C17.3739 46.634 17.3742 47.3866 17.38 48.1392C17.382 48.61 17.3641 49.0886 17.4139 49.5573C17.4559 49.9533 17.5267 50.3687 17.755 50.7023C17.9316 50.9604 18.2039 51.186 18.4973 51.2924C18.967 51.4628 19.5477 51.4414 20.0408 51.4445L22.1795 51.4486C22.6603 51.4491 23.1761 51.4192 23.6491 51.5073C24.0403 51.58 24.3713 51.8158 24.5928 52.1476C24.9973 52.7536 25.0059 53.9284 24.8715 54.6222C24.7706 55.1427 24.5153 55.5569 24.0777 55.8533C23.9641 55.9302 23.7892 56.046 23.6465 56.017C23.6031 56.0515 23.5671 56.0665 23.514 56.0791C23.055 56.1872 22.5493 56.1555 22.0806 56.1556L20.4735 56.1544L19.1492 56.1537C18.7626 56.1535 18.3646 56.1666 17.9821 56.1018C17.5575 56.03 17.1566 55.8623 16.7913 55.6346C15.947 55.1082 15.2262 53.9666 14.8945 53.0382C14.7149 52.5355 14.6044 52.0092 14.4865 51.4893C14.3652 50.9546 14.4291 50.3492 14.4321 49.8028L14.4475 46.9932C14.4287 44.7995 14.4222 42.6058 14.4281 40.4121L14.422 38.4957C14.4197 38.1156 14.4042 37.7306 14.4231 37.351C14.4357 37.0979 14.4672 36.9089 14.6062 36.691C14.6201 36.6695 14.6346 36.6483 14.6495 36.6275C14.6644 36.6067 14.6798 36.5863 14.6957 36.5662C14.7116 36.5462 14.728 36.5265 14.7448 36.5073C14.7617 36.488 14.7789 36.4691 14.7967 36.4507C14.8144 36.4323 14.8326 36.4143 14.8511 36.3968C14.8697 36.3793 14.8887 36.3622 14.9081 36.3456C14.9275 36.3289 14.9473 36.3128 14.9675 36.2972C14.9877 36.2815 15.0082 36.2664 15.0291 36.2517C15.05 36.2371 15.0712 36.2229 15.0928 36.2093C15.1143 36.1957 15.1362 36.1826 15.1584 36.1701C15.1806 36.1575 15.2031 36.1455 15.2258 36.134C15.2486 36.1226 15.2716 36.1117 15.2949 36.1013C15.3182 36.091 15.3417 36.0812 15.3654 36.0721C15.3892 36.0628 15.4131 36.0542 15.4373 36.0462C15.4614 36.0382 15.4857 36.0307 15.5103 36.0239C15.5348 36.017 15.5594 36.0108 15.5842 36.0051Z" fill="#222225"/>
<path d="M31.2908 35.9798C31.5038 35.9564 31.7492 35.9594 31.9585 36.0054C32.452 36.1142 32.8727 36.584 33.0262 37.0561C33.2084 37.6168 33.1716 38.1749 33.1683 38.7553L33.1649 40.0023L33.1436 47.0629L33.1445 48.8075C33.1414 49.17 33.1018 49.5792 33.1541 49.9377C33.1924 50.2003 33.3754 50.5333 33.5212 50.7535C34.1056 51.6364 35.1563 51.3201 36.0194 51.4978C36.3931 51.5748 36.6996 51.8701 36.9046 52.1829C37.2581 52.7221 37.3056 54.0054 37.1729 54.6382C37.0714 55.1216 36.7761 55.6137 36.3586 55.8816C36.2545 55.9484 36.0916 56.0462 35.964 56.0183C35.9216 56.0575 35.8669 56.0747 35.812 56.088C35.5021 56.1632 35.1656 56.1566 34.8486 56.1564C34.0363 56.156 33.2726 56.1275 32.5589 55.69C32.2862 55.5228 32.0125 55.3185 31.7912 55.0854C31.1472 54.4075 30.5583 53.1957 30.3392 52.2865C30.2629 51.9696 30.1866 51.6424 30.1498 51.3182C30.0925 50.8148 30.1095 50.2964 30.1109 49.7903L30.1223 47.4228L30.1112 41.9943L30.1003 39.007C30.0997 38.4957 30.0694 37.9599 30.1204 37.4516C30.149 37.1667 30.2603 36.8641 30.409 36.6212C30.6191 36.2779 30.9051 36.0727 31.2908 35.9798Z" fill="#222225"/>
<path d="M36.7115 19.0139C37.1061 18.9986 37.9629 18.9518 38.3195 19.036C38.4757 19.0729 38.6212 19.1486 38.7537 19.2385C39.1008 19.474 39.4293 19.8498 39.5424 20.2649C39.6411 20.6268 39.575 21.5243 39.5727 21.9504L39.5648 25.942C39.5649 26.7885 39.4944 27.6912 39.6606 28.5244C39.7497 28.9711 39.9574 29.5171 40.3823 29.7398C40.5385 29.8216 40.7157 29.8653 40.8619 29.9664C41.1462 30.1631 41.2966 30.5535 41.3535 30.8832C41.4302 31.328 41.4492 32.9534 41.3352 33.3534C41.2642 33.6022 41.0924 33.8803 40.9436 34.091C40.7586 34.353 40.337 34.4428 40.0393 34.49C39.4939 34.4512 38.8997 34.1412 38.4429 33.8542C37.2169 33.0843 35.8302 31.3929 35.5023 29.9581C35.2937 29.0454 35.3508 28.0244 35.3515 27.091L35.3592 23.9297L35.3555 21.9368C35.3541 21.5201 35.3339 21.0948 35.3753 20.6797C35.4086 20.3469 35.4802 20.0055 35.6595 19.72C35.9074 19.3251 36.2673 19.1126 36.7115 19.0139Z" fill="#222225"/>
<path d="M12.7706 19.0146C13.1001 18.9871 14.0101 18.9659 14.3277 19.0107C14.7609 19.0718 15.1156 19.3401 15.3702 19.6902C15.5597 19.9507 15.647 20.2248 15.686 20.5428C15.7518 21.0793 15.7252 21.6225 15.7254 22.1619L15.7239 24.7422L15.7305 27.3324C15.7325 28.013 15.7594 28.7084 15.6554 29.3826C15.5221 30.247 15.1362 31.2313 14.5959 31.919C14.3731 32.2025 14.0929 32.4588 13.8436 32.72C13.4199 33.164 13.0088 33.5688 12.514 33.9346C12.0904 34.2404 11.6193 34.4118 11.1105 34.5064C11.0759 34.486 11.0427 34.4643 11.0096 34.4414C10.6084 34.1635 10.3569 33.8266 10.2694 33.3388C10.2137 33.0284 10.168 32.7126 10.1537 32.3972C10.1268 31.8045 10.1906 30.3703 10.5208 29.8904C10.796 29.7644 11.0566 29.6453 11.2029 29.36C11.3027 29.1655 11.3511 28.9312 11.3789 28.7157C11.5008 27.7685 11.4721 26.7926 11.4725 25.8395L11.4772 22.3429C11.4767 21.6095 11.3403 20.519 11.7028 19.8641C11.717 19.8385 11.7318 19.8132 11.7472 19.7883C11.7626 19.7634 11.7786 19.7389 11.7952 19.7148C11.8118 19.6907 11.829 19.667 11.8468 19.6437C11.8645 19.6205 11.8829 19.5977 11.9017 19.5754C11.9206 19.553 11.94 19.5312 11.96 19.5098C11.9799 19.4884 12.0004 19.4676 12.0213 19.4472C12.0423 19.4269 12.0637 19.4071 12.0856 19.3878C12.1076 19.3685 12.1299 19.3498 12.1528 19.3316C12.1756 19.3134 12.1989 19.2958 12.2226 19.2788C12.2463 19.2618 12.2704 19.2454 12.2949 19.2296C12.3194 19.2138 12.3442 19.1986 12.3695 19.184C12.3947 19.1695 12.4203 19.1555 12.4462 19.1422C12.4721 19.1289 12.4983 19.1163 12.5249 19.1043C12.5514 19.0923 12.5782 19.081 12.6053 19.0703C12.6324 19.0597 12.6597 19.0497 12.6873 19.0404C12.7148 19.0311 12.7426 19.0225 12.7706 19.0146Z" fill="#222225"/>
<path d="M27.7171 35.957C27.886 35.9417 28.0656 35.9409 28.2319 35.9753C28.5963 36.0506 28.8811 36.2999 29.0812 36.6085C29.2592 36.883 29.3164 37.1043 29.3341 37.4245C29.3566 37.83 29.3406 38.2437 29.3397 38.65C29.3396 39.4711 29.3342 40.2922 29.3235 41.1132L29.3196 47.2883L29.3231 52.1917C29.3305 52.7584 29.3345 53.3252 29.335 53.8919C29.3337 54.227 29.3489 54.5986 29.2784 54.9269C29.1977 55.3023 28.8497 55.7238 28.5349 55.9264C28.4027 56.0114 28.1637 56.1262 28.0057 56.0905C27.9808 56.1085 27.9555 56.1258 27.9247 56.1314C27.7207 56.1685 27.4519 56.0247 27.2865 55.9213C26.8585 55.6538 26.5533 55.2486 26.4438 54.751C26.2806 54.01 26.3451 52.711 26.3449 51.9103L26.3495 47.0495L26.3475 40.9838L26.3477 38.9907C26.3483 38.6017 26.3349 38.2053 26.3618 37.8172C26.3898 37.4117 26.4482 37.0159 26.6731 36.6683C26.9296 36.2718 27.2627 36.0525 27.7171 35.957Z" fill="#222225"/>
<path d="M38.9474 35.9864C39.3833 35.9783 39.7452 36.0158 40.0771 36.3276C40.2897 36.5275 40.5391 36.9258 40.59 37.2228C40.6398 37.5138 40.5885 37.8709 40.5838 38.169C40.5734 38.8198 40.5682 39.4706 40.568 40.1215L40.5594 46.3664C40.5613 47.5473 40.5265 48.7437 40.607 49.9214C40.6405 50.4111 40.6845 50.9588 41.0062 51.3515C41.1249 51.4964 41.2912 51.6565 41.3504 51.8374C41.4071 52.0102 41.3824 52.2808 41.3885 52.4649C41.4078 53.0328 41.4616 54.9015 41.3335 55.3466C41.2868 55.5089 41.1661 55.6828 41.0519 55.8041C40.9224 55.9416 40.742 56.0692 40.5464 56.0659C40.4393 56.064 40.3247 56.0198 40.2493 55.943C40.244 55.9443 40.2389 55.9463 40.2334 55.9469C40.1229 55.9576 39.9471 55.8063 39.8649 55.7383C38.8264 54.8781 37.8545 52.7853 37.7218 51.4435C37.5893 50.1034 37.6418 48.7446 37.648 47.3997L37.6452 42.5332C37.6516 41.468 37.651 40.4028 37.6433 39.3376C37.6418 38.7655 37.5998 38.1636 37.6633 37.5969C37.7091 37.1888 37.8192 36.7932 38.0827 36.4719C38.3102 36.1946 38.5909 36.0196 38.9474 35.9864Z" fill="#222225"/>
<path d="M11.959 35.9804C12.3294 35.9912 12.6559 35.9928 12.991 36.1752C13.3781 36.3858 13.589 36.7099 13.7051 37.1319C13.7877 37.4319 13.7379 38.5651 13.7372 38.9639L13.7308 42.8307L13.7312 47.9774C13.734 49.0284 13.7974 50.214 13.6707 51.2499C13.5486 52.2484 13.283 53.1601 12.7817 54.0334C12.6184 54.3178 11.8028 55.6039 11.5403 55.6745C11.4225 55.8288 11.1277 56.0272 10.9415 56.0868C10.8542 56.1147 10.7648 56.1115 10.6852 56.0633C10.4666 55.9308 10.3328 55.5132 10.2814 55.277C10.1227 54.5476 10.1104 52.2067 10.3761 51.4922C10.4305 51.346 10.5541 51.2503 10.6351 51.1205C10.6382 51.1156 10.6412 51.1105 10.6442 51.1055C10.6603 50.7173 10.7469 50.336 10.7598 49.9505C10.7974 48.8273 10.7847 47.6975 10.783 46.5736L10.7757 41.8737L10.7625 38.9705C10.7598 38.4613 10.7321 37.9371 10.764 37.4291C10.7798 37.1768 10.8449 36.9557 10.9736 36.7383C11.1813 36.3875 11.564 36.0791 11.959 35.9804Z" fill="#222225"/>
<path d="M25.6201 18.9885C25.884 18.9863 26.1473 19.007 26.4113 19.0088C26.7073 19.0109 27.0368 18.9773 27.327 19.0248C27.4679 19.0478 27.5976 19.1041 27.7187 19.1795C27.9077 19.2969 28.083 19.4608 28.223 19.6342C28.8136 20.3651 28.5219 21.2479 28.7246 22.0883C29.1357 23.7931 30.7608 23.426 32.0676 23.465C32.4424 23.4762 32.7919 23.4927 33.1199 23.6986C33.551 23.9694 33.8325 24.3349 33.9423 24.839C34.1065 25.5924 34.116 26.6832 33.6877 27.3468C33.4361 27.7365 33.112 28.0023 32.6574 28.096C32.102 28.1883 31.1655 28.135 30.5793 28.1357C30.0534 28.1363 29.4414 28.1957 28.9279 28.1079C28.4784 28.031 27.9829 27.8414 27.5867 27.6115C27.0716 27.3127 26.638 26.8961 26.2245 26.4705C25.2757 25.4939 24.8163 24.9365 24.4577 23.5785C24.4017 23.3663 24.3379 23.141 24.3215 22.9213C24.2997 22.6278 24.3423 22.317 24.3463 22.0215C24.3531 21.5217 24.2903 20.8911 24.3719 20.4136C24.4108 20.1858 24.4997 19.9623 24.6156 19.7637C24.6293 19.7403 24.6436 19.7171 24.6584 19.6943C24.6732 19.6715 24.6886 19.649 24.7045 19.627C24.7204 19.6049 24.7368 19.5833 24.7537 19.562C24.7706 19.5408 24.7881 19.5199 24.806 19.4995C24.8239 19.4791 24.8423 19.4591 24.8612 19.4396C24.88 19.4201 24.8994 19.4011 24.9192 19.3825C24.939 19.3639 24.9592 19.3458 24.9798 19.3283C25.0005 19.3107 25.0215 19.2936 25.043 19.277C25.0644 19.2605 25.0863 19.2445 25.1085 19.229C25.1307 19.2135 25.1533 19.1985 25.1763 19.1842C25.1992 19.1697 25.2224 19.1559 25.246 19.1426C25.2696 19.1293 25.2935 19.1167 25.3177 19.1046C25.3419 19.0925 25.3664 19.081 25.3912 19.0701C25.4159 19.0592 25.4409 19.0489 25.4661 19.0392C25.4914 19.0295 25.5168 19.0204 25.5425 19.012C25.5682 19.0035 25.594 18.9957 25.6201 18.9885Z" fill="#222225"/>
<path d="M23.5554 35.9592C23.7243 35.9459 23.8956 35.9527 24.0598 35.9973C24.3656 36.0803 24.6095 36.2973 24.7623 36.5742C24.9275 36.8736 24.9659 37.2178 24.9893 37.5538C25.0354 38.2182 25.0255 38.8868 25.0263 39.5525L25.0092 43.0885L25.0193 46.1516C25.0229 46.8997 25.1074 48.0518 24.9035 48.7482C24.7918 49.1302 24.5447 49.5429 24.1853 49.7335C24.1127 49.772 24.041 49.8071 23.9581 49.7814C23.9365 49.7989 23.9181 49.8121 23.8908 49.8192C23.6483 49.8826 23.3621 49.8067 23.1543 49.6771C22.8675 49.4981 22.6079 49.1112 22.5348 48.7801C22.4191 48.2553 22.4749 47.6316 22.4702 47.0957C22.4595 46.0264 22.4555 44.957 22.458 43.8877L22.4569 39.8371C22.4561 38.9763 22.4221 38.095 22.498 37.2371C22.5216 36.9705 22.5734 36.783 22.7236 36.5578C22.9319 36.2457 23.186 36.0312 23.5554 35.9592Z" fill="#222225"/>
<path d="M19.3064 35.9817C19.4715 35.9576 19.6634 35.9595 19.8287 35.9825C20.1654 36.0291 20.4034 36.2086 20.6044 36.4791C20.7446 36.6678 20.9245 36.9644 20.9487 37.2017C20.9972 37.678 20.9443 38.3015 20.9442 38.7969L20.9366 42.6727L20.9409 46.4219C20.9422 46.9949 20.9903 47.8531 20.9127 48.3858C20.8487 48.8259 20.6056 49.2894 20.2436 49.5539C20.1654 49.6111 20.0589 49.6803 19.9594 49.6633C19.9407 49.6791 19.9219 49.6944 19.8999 49.7054C19.7602 49.7753 19.5215 49.7499 19.3794 49.6978C19.0229 49.5671 18.7412 49.2333 18.5882 48.893C18.447 48.5785 18.3979 48.2192 18.3751 47.8767C18.3403 47.3561 18.366 46.8223 18.3636 46.2998L18.3556 42.9889L18.3522 39.5994C18.3519 38.9704 18.3268 38.3292 18.3652 37.7017C18.3818 37.4301 18.4233 37.1746 18.5204 36.919C18.6699 36.5254 18.9174 36.1578 19.3064 35.9817Z" fill="#222225"/>
<path d="M35.2184 35.983C35.3723 35.9722 35.5244 35.9812 35.672 36.0299C36.0093 36.1409 36.2571 36.4068 36.41 36.7233C36.5596 37.0326 36.5717 37.4665 36.5883 37.807C36.6186 38.4312 36.5973 39.0638 36.596 39.689L36.5886 43.0892L36.5834 46.2805C36.5823 46.8793 36.6053 47.4908 36.5679 48.0881C36.5596 48.2154 36.5428 48.3415 36.5175 48.4664C36.4922 48.5913 36.4587 48.7139 36.4169 48.8343C36.3047 49.1552 36.0687 49.507 35.7548 49.6553C35.671 49.6948 35.5624 49.7333 35.4725 49.7002C35.4433 49.7162 35.4137 49.7303 35.3806 49.7352C35.1547 49.7688 34.9108 49.6615 34.7331 49.53C34.3352 49.2355 34.1697 48.7818 34.0979 48.3057C34.0618 48.0658 34.0852 47.8094 34.0881 47.5668L34.0916 46.5533L34.0926 42.4088L34.0913 38.8463C34.09 38.4201 34.0338 37.7276 34.0796 37.3437C34.1164 37.0354 34.2924 36.6897 34.474 36.4432C34.6726 36.1737 34.8901 36.0297 35.2184 35.983Z" fill="#222225"/>
</g>
</g>
<defs>
<clipPath id="clip0_6_2107">
<rect width="51" height="66" fill="white"/>
</clipPath>
<clipPath id="clip1_6_2107">
<rect width="32" height="48" fill="white" transform="translate(10 9)"/>
</clipPath>
</defs>
</svg>
